<svg width="60" height="60" viewBox="0 0 60 60" fill="none" xmlns="http://www.w3.org/2000/svg">
<g clip-path="url(#clip0_1_5107)">
<path d="M22.7095 49.8675C22.6281 49.8677 22.5486 49.8433 22.4813 49.7976C22.4309 49.7624 22.3887 49.7166 22.3577 49.6636C22.3266 49.6105 22.3075 49.5513 22.3015 49.4901C22.2956 49.4289 22.303 49.3671 22.3233 49.3091C22.3435 49.251 22.3761 49.198 22.4188 49.1538L25.0607 46.46C25.4593 46.0525 25.9319 45.7246 26.4532 45.4938L31.6057 43.2119C32.9455 42.6166 34.0911 41.6568 34.912 40.4419L42.377 29.4344C42.4386 29.3438 42.5337 29.2813 42.6413 29.2607C42.7217 29.2454 42.8047 29.2549 42.8795 29.288C42.9543 29.321 43.0173 29.376 43.0601 29.4457C43.1044 29.5155 43.1272 29.5967 43.1258 29.6794C43.1243 29.762 43.0987 29.8425 43.052 29.9107L35.5876 40.9175C34.6808 42.261 33.4142 43.3221 31.9326 43.9794L26.7807 46.2613C26.3557 46.4494 25.9688 46.7175 25.6413 47.0525L22.9995 49.745C22.9617 49.7837 22.9166 49.8145 22.8668 49.8355C22.817 49.8566 22.7635 49.8675 22.7095 49.8675ZM29.5601 37.46C28.9857 37.4599 28.4169 37.3482 27.8851 37.1313L26.4913 36.5632C25.9384 36.3391 25.4359 36.0067 25.0132 35.5857C24.5876 35.1614 24.2497 34.6574 24.0188 34.1025L22.2251 29.8369C22.1851 29.7354 22.1855 29.6225 22.2263 29.5213C22.2668 29.4206 22.3451 29.3399 22.4445 29.2963C22.4932 29.2749 22.5457 29.2635 22.5989 29.2625C22.6521 29.2615 22.705 29.2711 22.7545 29.2907C22.8545 29.3307 22.9357 29.4088 22.9795 29.5088L24.7726 33.7732C24.9616 34.227 25.2381 34.6393 25.5863 34.9863C25.9321 35.3309 26.3433 35.6029 26.7957 35.7863L28.1895 36.355C28.8535 36.6278 29.5838 36.6962 30.287 36.5513L31.7463 36.2532C32.593 36.0783 33.3515 35.6118 33.8895 34.935L38.2938 29.4088C38.3269 29.3644 38.3685 29.327 38.4163 29.299C38.4641 29.271 38.517 29.2528 38.572 29.2457C38.6269 29.2388 38.6826 29.2433 38.7357 29.2589C38.7889 29.2745 38.8382 29.3008 38.8807 29.3363C38.9239 29.3721 38.9595 29.4162 38.9853 29.466C39.0111 29.5158 39.0265 29.5704 39.0307 29.6263C39.0353 29.6822 39.0288 29.7385 39.0117 29.7919C38.9945 29.8453 38.967 29.8948 38.9307 29.9375L34.5263 35.4625C33.8684 36.2903 32.9407 36.8607 31.9051 37.0744L30.4463 37.3713C30.1546 37.4306 29.8577 37.4603 29.5601 37.46ZM16.0351 43.0625C15.9539 43.0623 15.8746 43.0377 15.8076 42.9919C15.7573 42.9566 15.7153 42.9108 15.6844 42.8578C15.6535 42.8047 15.6344 42.7455 15.6285 42.6844C15.6225 42.6233 15.6299 42.5616 15.65 42.5035C15.6701 42.4455 15.7026 42.3925 15.7451 42.3482L17.7988 40.2544C18.4005 39.6421 18.8601 38.9049 19.1451 38.095C19.4319 37.2812 19.5381 36.4147 19.4563 35.5557L18.9107 29.7119C18.9002 29.6018 18.9332 29.4919 19.0026 29.4057C19.0542 29.3424 19.1235 29.296 19.2017 29.2724C19.2799 29.2489 19.3634 29.2494 19.4413 29.2737C19.5193 29.2981 19.5881 29.3452 19.639 29.409C19.69 29.4729 19.7206 29.5505 19.727 29.6319L20.2738 35.4769C20.367 36.4584 20.2455 37.4484 19.9176 38.3782C19.5918 39.3036 19.0665 40.146 18.3788 40.8457L16.3251 42.9394C16.2875 42.9782 16.2425 43.009 16.1928 43.0302C16.1431 43.0513 16.0891 43.0623 16.0351 43.0625Z" fill="#263238"/>
<path d="M9.27014 47.1062L18.0114 55.8437C18.1356 55.9679 18.3041 56.0377 18.4798 56.0377C18.6555 56.0377 18.824 55.9679 18.9483 55.8437L22.4108 52.3831C22.5348 52.259 22.6044 52.0907 22.6044 51.9153C22.6044 51.7398 22.5348 51.5716 22.4108 51.4474L13.6689 42.7099C13.5447 42.5859 13.3763 42.5162 13.2008 42.5162C13.0252 42.5162 12.8569 42.5859 12.7326 42.7099L9.27014 46.1706C9.20865 46.232 9.15987 46.305 9.12658 46.3853C9.0933 46.4657 9.07617 46.5517 9.07617 46.6387C9.07617 46.7256 9.0933 46.8117 9.12658 46.8921C9.15987 46.9724 9.20865 47.0447 9.27014 47.1062Z" fill="#0067B2"/>
<path d="M18.4819 56.3825C18.3184 56.383 18.1565 56.3512 18.0054 56.2887C17.8544 56.2263 17.7172 56.1345 17.6019 56.0187L9.0975 47.5181C8.86476 47.2846 8.73408 46.9684 8.73408 46.6387C8.73408 46.309 8.86476 45.9928 9.0975 45.7593L12.3238 42.535C12.5608 42.3086 12.876 42.1823 13.2037 42.1823C13.5315 42.1823 13.8467 42.3086 14.0838 42.535L22.5875 51.0356C22.8202 51.2691 22.9509 51.5853 22.9509 51.915C22.9509 52.2446 22.8202 52.5609 22.5875 52.7943L19.3612 56.0187C19.2458 56.1344 19.1086 56.2261 18.9576 56.2885C18.8066 56.3509 18.6453 56.3829 18.4819 56.3825ZM9.68437 46.9318L18.1894 55.4318C18.2684 55.5073 18.3735 55.5494 18.4828 55.5494C18.5921 55.5494 18.6972 55.5073 18.7762 55.4318L22.0019 52.2075C22.0404 52.169 22.0709 52.1233 22.0918 52.073C22.1126 52.0227 22.1234 51.9688 22.1234 51.9143C22.1234 51.8599 22.1126 51.806 22.0918 51.7557C22.0709 51.7054 22.0404 51.6597 22.0019 51.6212L13.4975 43.1212C13.4184 43.0458 13.3134 43.0036 13.2041 43.0036C13.0948 43.0036 12.9897 43.0458 12.9106 43.1212L9.68562 46.3456C9.64711 46.3841 9.61656 46.4298 9.59571 46.4801C9.57487 46.5304 9.56414 46.5843 9.56414 46.6387C9.56414 46.6932 9.57487 46.7471 9.59571 46.7974C9.61656 46.8477 9.64711 46.8934 9.68562 46.9318H9.68437ZM50.6125 28.6262H9.3875C9.05396 28.6266 8.73355 28.4962 8.495 28.2631C8.37825 28.1489 8.2854 28.0126 8.22187 27.8622C8.15835 27.7117 8.12542 27.5501 8.125 27.3868V25.7343C8.125 25.4056 8.25813 25.0906 8.495 24.8581C8.7333 24.6249 9.05346 24.4943 9.38688 24.4943H50.6131C50.9475 24.4943 51.2681 24.6256 51.505 24.8581C51.7419 25.0906 51.8744 25.4056 51.875 25.7343V27.3868C51.875 27.7156 51.7419 28.0306 51.505 28.2631C51.2666 28.4961 50.9458 28.6264 50.6125 28.6262ZM9.3875 25.32C9.275 25.32 9.16875 25.3637 9.09 25.4412C9.05104 25.4793 9.02008 25.5248 8.99894 25.575C8.9778 25.6253 8.9669 25.6792 8.96688 25.7337V27.3862C8.96688 27.4956 9.01062 27.6006 9.09 27.6781C9.16933 27.7557 9.27588 27.7992 9.38688 27.7993H50.6131C50.7241 27.7992 50.8307 27.7557 50.91 27.6781C50.9489 27.64 50.9798 27.5946 51.0009 27.5445C51.022 27.4944 51.033 27.4406 51.0331 27.3862V25.7337C51.033 25.6793 51.022 25.6255 51.0009 25.5754C50.9798 25.5253 50.9489 25.4799 50.91 25.4418C50.8307 25.3642 50.7241 25.3207 50.6131 25.3206H9.38688L9.3875 25.32ZM30.1125 35.7375C30.033 35.7374 29.955 35.7151 29.8875 35.6731C29.8372 35.6428 29.794 35.6019 29.7609 35.5533C29.7279 35.5047 29.7058 35.4495 29.6961 35.3915C29.6864 35.3336 29.6894 35.2742 29.7048 35.2175C29.7203 35.1608 29.7479 35.1081 29.7856 35.0631L34.3 29.6068C34.3343 29.5621 34.3772 29.5247 34.4263 29.497C34.4754 29.4693 34.5296 29.4518 34.5856 29.4456C34.6416 29.4389 34.6984 29.4433 34.7527 29.4587C34.807 29.474 34.8577 29.4999 34.9019 29.535C34.9454 29.5699 34.9815 29.6132 35.0079 29.6624C35.0343 29.7116 35.0506 29.7656 35.0556 29.8212C35.0606 29.8768 35.054 29.9327 35.0364 29.9856C35.0187 30.0385 34.9904 30.0872 34.9531 30.1287L30.4387 35.585C30.3991 35.633 30.3493 35.6717 30.2929 35.6981C30.2364 35.7245 30.1748 35.7379 30.1125 35.7375ZM47.2475 47.3875H46.4062C46.2951 47.3877 46.1883 47.3444 46.1087 47.2668C46.0698 47.2287 46.0389 47.1832 46.0178 47.133C45.9967 47.0828 45.9858 47.0288 45.9858 46.9743C45.9858 46.9198 45.9967 46.8659 46.0178 46.8157C46.0389 46.7655 46.0698 46.72 46.1087 46.6818C46.1883 46.6043 46.2951 46.561 46.4062 46.5612H47.2475C47.3594 46.5612 47.4662 46.605 47.545 46.6825C47.5838 46.7206 47.6147 46.766 47.6357 46.8162C47.6568 46.8664 47.6676 46.9202 47.6676 46.9746C47.6676 47.0291 47.6568 47.0829 47.6357 47.1331C47.6147 47.1833 47.5838 47.2287 47.545 47.2668C47.4654 47.3444 47.3586 47.3877 47.2475 47.3875ZM44.7237 47.3875H35.4688C35.3576 47.3877 35.2508 47.3444 35.1712 47.2668C35.1324 47.2287 35.1015 47.1832 35.0805 47.1329C35.0594 47.0827 35.0486 47.0288 35.0486 46.9743C35.0486 46.9199 35.0594 46.866 35.0805 46.8157C35.1015 46.7655 35.1324 46.72 35.1712 46.6818C35.2508 46.6043 35.3576 46.561 35.4688 46.5612H44.7237C44.835 46.5612 44.9425 46.605 45.0212 46.6825C45.06 46.7206 45.0908 46.7661 45.1118 46.8163C45.1328 46.8664 45.1436 46.9203 45.1436 46.9746C45.1436 47.029 45.1328 47.0829 45.1118 47.133C45.0908 47.1832 45.06 47.2287 45.0212 47.2668C44.9417 47.3444 44.8349 47.3877 44.7237 47.3875ZM43.0412 49.8668H32.1038C31.9923 49.8671 31.8853 49.8235 31.8056 49.7456C31.7668 49.7075 31.7359 49.662 31.7149 49.6118C31.6938 49.5617 31.683 49.5078 31.683 49.4534C31.683 49.399 31.6938 49.3451 31.7149 49.295C31.7359 49.2448 31.7668 49.1993 31.8056 49.1612C31.8851 49.0834 31.9919 49.0399 32.1031 49.04H43.0406C43.1519 49.04 43.2594 49.0837 43.3381 49.1612C43.3769 49.1994 43.4077 49.2448 43.4287 49.295C43.4497 49.3452 43.4605 49.399 43.4605 49.4534C43.4605 49.5078 43.4497 49.5616 43.4287 49.6118C43.4077 49.6619 43.3769 49.7074 43.3381 49.7456C43.2589 49.8234 43.1523 49.8669 43.0412 49.8668ZM45.3538 11.025C45.2653 11.0256 45.1788 10.9987 45.1062 10.9481C45.034 10.8976 44.9797 10.8253 44.9512 10.7418L44.4875 9.37246C44.3899 9.08828 44.2272 8.83082 44.0125 8.62059C43.7967 8.40893 43.5352 8.24963 43.2481 8.15496L41.8531 7.69809C41.7699 7.67073 41.6974 7.61807 41.6456 7.54746C41.5943 7.47748 41.5667 7.39297 41.5667 7.30621C41.5667 7.21945 41.5943 7.13494 41.6456 7.06496C41.6975 6.99458 41.77 6.94215 41.8531 6.91496L43.2481 6.45746C43.5362 6.36246 43.7981 6.20309 44.0131 5.99246C44.2281 5.78121 44.3906 5.52371 44.4869 5.24121L44.9512 3.86996C44.9863 3.79418 45.0425 3.73016 45.1131 3.68559C45.1661 3.65211 45.2257 3.63026 45.2877 3.62146C45.3498 3.61266 45.4131 3.61711 45.4733 3.63454C45.5335 3.65196 45.5894 3.68194 45.6372 3.72252C45.685 3.7631 45.7237 3.81335 45.7506 3.86996L46.2144 5.24121C46.3112 5.52434 46.4738 5.78121 46.6888 5.99246C46.9038 6.20371 47.1656 6.36246 47.4538 6.45746L48.8487 6.91496C48.9325 6.94184 49.005 6.99496 49.0569 7.06496C49.0959 7.11743 49.1217 7.1785 49.1322 7.24303C49.1427 7.30757 49.1375 7.37367 49.1171 7.43578C49.0967 7.4979 49.0617 7.5542 49.015 7.59996C48.9683 7.64571 48.9113 7.67958 48.8487 7.69871L47.4538 8.15559C47.1665 8.25017 46.9047 8.40947 46.6888 8.62121C46.4738 8.83246 46.3112 9.08996 46.2144 9.37309L45.7506 10.7431C45.7223 10.8251 45.6689 10.8961 45.5981 10.9462C45.5269 10.9968 45.4411 11.0243 45.3538 11.025ZM43.3194 7.30621L43.5169 7.37184C43.9294 7.50746 44.3031 7.73559 44.6106 8.03746C44.9173 8.33783 45.1495 8.70575 45.2887 9.11184L45.3556 9.30559L45.4225 9.11184C45.5616 8.70554 45.7939 8.3374 46.1006 8.03684C46.4094 7.73426 46.7836 7.50673 47.1944 7.37184L47.3919 7.30621L47.1944 7.23996C46.7836 7.10482 46.4094 6.87708 46.1006 6.57434C45.7941 6.27408 45.5619 5.90641 45.4225 5.50059L45.3556 5.30684L45.2881 5.50059C45.1489 5.90635 44.9169 6.27402 44.6106 6.57434C44.3019 6.87708 43.9276 7.10482 43.5169 7.23996L43.3194 7.30621Z" fill="#263238"/>
<path d="M39.2323 9.78687H14.0136C13.838 9.78687 13.6696 9.85658 13.5453 9.98069C13.4211 10.1048 13.3512 10.2731 13.3511 10.4487V24.0487C13.3514 24.2242 13.4214 24.3924 13.5456 24.5164C13.6698 24.6404 13.8381 24.71 14.0136 24.71H39.2323C39.4079 24.71 39.5763 24.6403 39.7006 24.5162C39.8248 24.3921 39.8947 24.2237 39.8948 24.0481V10.4481C39.8945 10.2726 39.8245 10.1044 39.7003 9.98046C39.5761 9.85649 39.4078 9.78686 39.2323 9.78687Z" fill="#0067B2"/>
<path d="M39.065 25.1243H14.1812C13.8515 25.1238 13.5355 24.9926 13.3023 24.7595C13.0692 24.5264 12.938 24.2103 12.9375 23.8806V10.6156C12.9378 10.2858 13.069 9.96965 13.3022 9.73648C13.5353 9.5033 13.8515 9.37216 14.1812 9.37183H39.065C39.3947 9.37249 39.7106 9.50374 39.9437 9.73684C40.1768 9.96995 40.3081 10.2859 40.3088 10.6156V23.8812C40.3086 24.211 40.1775 24.5273 39.9443 24.7605C39.7111 24.9937 39.3948 25.1242 39.065 25.1243ZM14.1812 10.2006C14.0715 10.2009 13.9662 10.2447 13.8886 10.3223C13.811 10.3999 13.7672 10.5052 13.7669 10.615V23.88C13.7669 23.9899 13.8105 24.0952 13.8882 24.173C13.966 24.2507 14.0714 24.2943 14.1812 24.2943H39.065C39.1748 24.2942 39.2801 24.2505 39.3578 24.1728C39.4355 24.0951 39.4792 23.9898 39.4794 23.88V10.615C39.4792 10.5051 39.4355 10.3998 39.3578 10.3221C39.2801 10.2445 39.1748 10.2007 39.065 10.2006H14.1812Z" fill="#263238"/>
<path d="M41.875 24.8676H46.0413C46.1506 24.8676 46.2594 24.8438 46.36 24.7963C46.4619 24.7494 46.5538 24.6801 46.6313 24.5932C46.7088 24.5057 46.77 24.4026 46.8119 24.2888C46.8538 24.1751 46.875 24.0532 46.875 23.9301V22.0551C46.877 21.8119 46.7903 21.5764 46.6313 21.3926C46.475 21.2163 46.2625 21.1176 46.0413 21.1176H41.875" fill="#EFF4F7"/>
<path d="M46.1605 24.8676H41.6967C41.5786 24.8679 41.4651 24.8219 41.3805 24.7394C41.3393 24.6991 41.3066 24.651 41.2843 24.5978C41.262 24.5447 41.2505 24.4877 41.2505 24.4301C41.2505 24.3724 41.262 24.3154 41.2843 24.2623C41.3066 24.2091 41.3393 24.161 41.3805 24.1207C41.4649 24.0384 41.5782 23.9924 41.6961 23.9926H46.1605C46.2792 23.9926 46.3917 23.9457 46.4761 23.8638C46.5173 23.8236 46.55 23.7756 46.5725 23.7226C46.5949 23.6696 46.6065 23.6126 46.6067 23.5551V21.8051C46.6065 21.7475 46.5947 21.6905 46.5722 21.6375C46.5496 21.5845 46.5168 21.5365 46.4755 21.4963C46.3913 21.4139 46.2783 21.3677 46.1605 21.3676H41.6967C41.5786 21.3679 41.4651 21.3219 41.3805 21.2394C41.3393 21.1991 41.3066 21.151 41.2843 21.0978C41.262 21.0447 41.2505 20.9877 41.2505 20.9301C41.2505 20.8724 41.262 20.8154 41.2843 20.7623C41.3066 20.7091 41.3393 20.661 41.3805 20.6207C41.4649 20.5384 41.5782 20.4924 41.6961 20.4926H46.1605C46.5155 20.4926 46.8561 20.6313 47.1074 20.8776C47.358 21.1238 47.4992 21.4569 47.4999 21.8051V23.5551C47.4999 23.9032 47.358 24.2363 47.1074 24.4826C46.8541 24.7296 46.5143 24.8678 46.1605 24.8676Z" fill="#263238"/>
<path d="M41.875 21.1176H46.0413C46.2625 21.1176 46.4744 21.0351 46.6306 20.8888C46.7869 20.7419 46.875 20.5432 46.875 20.3363V18.7738C46.875 18.6713 46.8538 18.5701 46.8119 18.4751C46.7692 18.3791 46.7075 18.2928 46.6306 18.2213C46.5523 18.1481 46.4606 18.0906 46.3606 18.0519C46.259 18.0126 46.1509 17.9925 46.0419 17.9926H41.875" fill="#EFF4F7"/>
<path d="M46.1606 21.1175H41.6969C41.5819 21.1188 41.47 21.0799 41.3806 21.0075C41.3407 20.9756 41.3083 20.9353 41.2857 20.8895C41.2632 20.8437 41.251 20.7935 41.25 20.7425C41.25 20.6425 41.2969 20.5475 41.3812 20.4768C41.4705 20.4048 41.5821 20.3661 41.6969 20.3675H46.1606C46.2794 20.3675 46.3919 20.3275 46.4762 20.2575C46.5161 20.2256 46.5485 20.1853 46.5711 20.1395C46.5936 20.0937 46.6059 20.0435 46.6069 19.9925V18.4925C46.6058 18.4414 46.5935 18.3911 46.5708 18.3453C46.5481 18.2995 46.5156 18.2593 46.4756 18.2275C46.3866 18.1553 46.2752 18.1164 46.1606 18.1175H41.6969C41.5819 18.1189 41.4701 18.0802 41.3806 18.0081C41.3406 17.9762 41.3082 17.9358 41.2856 17.8899C41.263 17.844 41.2509 17.7936 41.25 17.7425C41.25 17.6431 41.2969 17.5475 41.3812 17.4775C41.4704 17.4052 41.5821 17.3663 41.6969 17.3675H46.1606C46.5156 17.3675 46.8563 17.4862 47.1075 17.6975C47.3581 17.9081 47.4994 18.1943 47.5 18.4925V19.9925C47.5 20.2906 47.3581 20.5768 47.1075 20.7875C46.8399 21.0043 46.505 21.121 46.1606 21.1175Z" fill="#263238"/>
<path d="M41.875 17.9926H46.0413C46.2625 17.9926 46.4744 17.9101 46.6306 17.7638C46.7869 17.6169 46.875 17.4182 46.875 17.2113V15.6488C46.875 15.5463 46.8538 15.4451 46.8119 15.3501C46.7692 15.2541 46.7075 15.1678 46.6306 15.0963C46.5523 15.0231 46.4606 14.9656 46.3606 14.9269C46.259 14.8876 46.1509 14.8675 46.0419 14.8676H41.875" fill="#EFF4F7"/>
<path d="M46.1605 18.6176H41.6967C41.5786 18.6179 41.4651 18.5719 41.3805 18.4894C41.3393 18.4491 41.3066 18.401 41.2843 18.3478C41.262 18.2947 41.2505 18.2377 41.2505 18.1801C41.2505 18.1224 41.262 18.0654 41.2843 18.0123C41.3066 17.9591 41.3393 17.911 41.3805 17.8707C41.4649 17.7884 41.5782 17.7424 41.6961 17.7426H46.1605C46.2792 17.7426 46.3917 17.6957 46.4761 17.6138C46.5173 17.5736 46.55 17.5256 46.5725 17.4726C46.5949 17.4196 46.6065 17.3626 46.6067 17.3051V15.5551C46.6064 15.4975 46.5947 15.4405 46.5721 15.3875C46.5496 15.3345 46.5167 15.2865 46.4755 15.2463C46.3911 15.1643 46.2782 15.1183 46.1605 15.1182H41.6967C41.5785 15.1183 41.465 15.0721 41.3805 14.9894C41.3393 14.9491 41.3066 14.901 41.2843 14.8478C41.262 14.7947 41.2505 14.7377 41.2505 14.6801C41.2505 14.6224 41.262 14.5654 41.2843 14.5123C41.3066 14.4591 41.3393 14.411 41.3805 14.3707C41.4649 14.2884 41.5782 14.2424 41.6961 14.2426H46.1605C46.5155 14.2426 46.8561 14.3813 47.1074 14.6276C47.3586 14.8732 47.4999 15.2069 47.4999 15.5551V17.3051C47.4999 17.6532 47.358 17.9863 47.1074 18.2326C46.8541 18.4796 46.5143 18.6178 46.1605 18.6176Z" fill="#263238"/>
<path d="M26.6227 22.2226C27.2761 22.2228 27.9231 22.0943 28.5269 21.8445C29.1306 21.5947 29.6792 21.2284 30.1414 20.7665C30.6035 20.3047 30.9702 19.7563 31.2204 19.1527C31.4706 18.5491 31.5994 17.9022 31.5996 17.2488C31.5996 16.5954 31.4709 15.9483 31.2208 15.3447C30.9707 14.741 30.6041 14.1925 30.142 13.7305C29.6799 13.2685 29.1313 12.9021 28.5276 12.6521C27.9239 12.4022 27.2768 12.2736 26.6234 12.2738C25.9699 12.2736 25.3227 12.4021 24.7189 12.652C24.1151 12.9019 23.5665 13.2683 23.1043 13.7303C22.6421 14.1923 22.2755 14.7408 22.0254 15.3445C21.7752 15.9482 21.6465 16.5953 21.6465 17.2488C21.6466 17.9021 21.7755 18.549 22.0257 19.1526C22.2758 19.7561 22.6424 20.3044 23.1045 20.7663C23.5666 21.2281 24.1151 21.5945 24.7188 21.8443C25.3224 22.0942 25.9694 22.2227 26.6227 22.2226Z" fill="white"/>
<path d="M26.624 22.6375C25.5578 22.6374 24.5157 22.3212 23.6291 21.7291C22.7425 21.137 22.0513 20.2954 21.6427 19.3106C21.3375 18.5743 21.1994 17.7794 21.2384 16.9833C21.2775 16.1872 21.4927 15.4096 21.8685 14.7067C22.2444 14.0038 22.7716 13.3931 23.412 12.9185C24.0525 12.444 24.7902 12.1175 25.5721 11.9625C26.6178 11.7548 27.7017 11.8616 28.6867 12.2695C29.6717 12.6775 30.5138 13.3682 31.1065 14.2544C31.6989 15.1404 32.0151 16.1823 32.0152 17.2481C32.0128 18.6771 31.4438 20.0469 30.4331 21.0571C29.4224 22.0674 28.053 22.6357 26.624 22.6375ZM26.624 12.6888C25.7219 12.6888 24.84 12.9563 24.0898 13.4573C23.3396 13.9583 22.7547 14.6705 22.409 15.5038C22.1506 16.1268 22.0337 16.7994 22.0667 17.4731C22.0997 18.1467 22.2818 18.8047 22.5999 19.3995C22.918 19.9942 23.3641 20.511 23.9061 20.9125C24.448 21.314 25.0723 21.5902 25.734 21.7213C26.3953 21.8525 27.0775 21.8355 27.7315 21.6716C28.3855 21.5077 28.9951 21.2009 29.5164 20.7733C30.0377 20.3457 30.4578 19.8079 30.7465 19.1986C31.0351 18.5893 31.1852 17.9236 31.1859 17.2494C31.1845 16.0399 30.7034 14.8804 29.848 14.0253C28.9926 13.1703 27.8335 12.6896 26.624 12.6888Z" fill="#263238"/>
<path d="M35.09 22.3676H18.6581C18.5784 22.3676 18.5001 22.3457 18.4319 22.3044C18.3647 22.2637 18.3105 22.2048 18.2756 22.1344C17.6687 20.9032 16.5925 19.9432 15.2706 19.4557C15.1917 19.4264 15.1234 19.3741 15.0744 19.3057C15.0261 19.2382 15.0001 19.1574 15 19.0744V15.0369C15 14.9544 15.025 14.8738 15.0738 14.8057C15.1229 14.7371 15.1915 14.6848 15.2706 14.6557C16.5931 14.1669 17.6688 13.2069 18.2763 11.9744C18.3113 11.9045 18.3655 11.846 18.4325 11.8057C18.5008 11.7645 18.579 11.7429 18.6588 11.7432H35.09C35.17 11.7426 35.2488 11.7644 35.3162 11.8057C35.3833 11.846 35.4375 11.9045 35.4725 11.9744C36.0788 13.2082 37.1563 14.1682 38.4788 14.6557C38.5579 14.6849 38.6264 14.7372 38.6756 14.8057C38.7238 14.8732 38.7498 14.954 38.75 15.0369V19.0744C38.7498 19.1574 38.7238 19.2382 38.6756 19.3057C38.6266 19.3741 38.5582 19.4263 38.4794 19.4557C37.1569 19.9432 36.0806 20.9026 35.4737 22.1344C35.4389 22.2048 35.3847 22.2637 35.3175 22.3044C35.2489 22.346 35.1702 22.3678 35.09 22.3676ZM18.9188 21.5501H34.8288C35.5 20.3244 36.5837 19.3544 37.9025 18.8001V15.3101C36.5837 14.7563 35.4994 13.7863 34.8288 12.5601H18.92C18.2487 13.7863 17.165 14.7557 15.8463 15.3101V18.8001C17.165 19.3544 18.2481 20.3244 18.9188 21.5501Z" fill="#3990D0"/>
</g>
<defs>
<clipPath id="clip0_1_5107">
<rect width="60" height="60" fill="white"/>
</clipPath>
</defs>
</svg>
