<svg width="24" height="24" viewBox="0 0 24 24" fill="none" xmlns="http://www.w3.org/2000/svg">
<path d="M8.19066 21.5239C8.71665 21.5239 9.14304 21.0975 9.14304 20.5714C9.14304 20.0455 8.71665 19.6191 8.19066 19.6191C7.66467 19.6191 7.23828 20.0455 7.23828 20.5714C7.23828 21.0975 7.66467 21.5239 8.19066 21.5239Z" stroke="white" stroke-width="1.82857" stroke-linecap="round" stroke-linejoin="round"/>
<path d="M18.6662 21.5239C19.1923 21.5239 19.6187 21.0975 19.6187 20.5714C19.6187 20.0455 19.1923 19.6191 18.6662 19.6191C18.1403 19.6191 17.7139 20.0455 17.7139 20.5714C17.7139 21.0975 18.1403 21.5239 18.6662 21.5239Z" stroke="white" stroke-width="1.82857" stroke-linecap="round" stroke-linejoin="round"/>
<path d="M2.52344 2.52378H4.4282L6.96153 14.7144C7.05447 15.1477 7.29551 15.5349 7.64316 15.8095C7.99082 16.0841 8.42335 16.229 8.8663 16.2192H18.1805C18.614 16.2185 19.0344 16.0699 19.3721 15.7981C19.7097 15.5262 19.9445 15.1473 20.0377 14.7239L21.9996 6.7619H5.33587" stroke="white" stroke-width="1.82857" stroke-linecap="round" stroke-linejoin="round"/>
</svg>
