<svg width="7" height="14" viewBox="0 0 7 14" fill="none" xmlns="http://www.w3.org/2000/svg">
<path d="M4.656 7.66424H6.336L6.992 5.00824H4.656V3.66424C4.656 3.36557 4.672 3.15224 4.704 3.02424C4.75733 2.80024 4.87467 2.6349 5.056 2.52824C5.26933 2.40024 5.584 2.33624 6 2.33624H6.992V0.0962372C6.864 0.0749038 6.62933 0.0535713 6.288 0.032238C5.872 0.0109047 5.472 0.000237465 5.088 0.000237465C4.48 0.000237465 3.944 0.122904 3.48 0.368237C3.016 0.613571 2.656 0.965571 2.4 1.42424C2.13333 1.90424 2 2.4749 2 3.13624V5.00824H0V7.66424H2V13.3442H4.656V7.66424Z" fill="white"/>
</svg>

