<svg width="16" height="20" viewBox="0 0 16 20" fill="none" xmlns="http://www.w3.org/2000/svg">
<g clip-path="url(#clip0_4_13247)">
<g clip-path="url(#clip1_4_13247)">
<path fill-rule="evenodd" clip-rule="evenodd" d="M8.92533 0.731998C11.0187 2.27333 11.8787 2.90533 15.272 2.90533H15.3107C15.6907 2.90533 16 3.21466 16 3.59467V9.80133C16 15.3547 9.53867 18.264 8.22933 18.7973C8.08248 18.8581 7.91752 18.8581 7.77067 18.7973C6.46133 18.264 0 15.3547 0 9.8V3.59467C0 3.21466 0.309333 2.90533 0.689333 2.90533H0.766667C4.15333 2.90533 4.996 2.26133 7.1 0.654665L7.508 0.342665L7.564 0.302665C7.68881 0.215722 7.83887 0.172501 7.99081 0.179736C8.14274 0.186971 8.28802 0.244255 8.404 0.342665L8.45733 0.387998L8.92533 0.731998ZM12.288 6.05733C12.2518 6.02097 12.2088 5.99211 12.1614 5.97242C12.1141 5.95273 12.0633 5.9426 12.012 5.9426C11.9607 5.9426 11.9099 5.95273 11.8626 5.97242C11.8152 5.99211 11.7722 6.02097 11.736 6.05733L7.33333 10.46L4.48933 7.616C4.45316 7.57964 4.41015 7.55078 4.36278 7.53109C4.31542 7.5114 4.26463 7.50126 4.21333 7.50126C4.16204 7.50126 4.11125 7.5114 4.06388 7.53109C4.01652 7.55078 3.97351 7.57964 3.93733 7.616L3.38667 8.16667C3.31355 8.23991 3.27249 8.33917 3.27249 8.44267C3.27249 8.54616 3.31355 8.64542 3.38667 8.71867L6.78133 12.1147C6.85378 12.1872 6.93982 12.2448 7.03454 12.2841C7.12926 12.3234 7.23079 12.3436 7.33333 12.3436C7.43587 12.3436 7.53741 12.3234 7.63212 12.2841C7.72684 12.2448 7.81289 12.1872 7.88533 12.1147L12.8387 7.16C12.875 7.12382 12.9039 7.08081 12.9236 7.03345C12.9433 6.98608 12.9534 6.93529 12.9534 6.884C12.9534 6.8327 12.9433 6.78191 12.9236 6.73455C12.9039 6.68718 12.875 6.64418 12.8387 6.608L12.288 6.05733Z" fill="black"/>
</g>
</g>
<defs>
<clipPath id="clip0_4_13247">
<rect width="16" height="20" fill="white"/>
</clipPath>
<clipPath id="clip1_4_13247">
<rect width="16" height="20" fill="white"/>
</clipPath>
</defs>
</svg>
