<svg width="14" height="14" viewBox="0 0 14 14" fill="none" xmlns="http://www.w3.org/2000/svg">
<path d="M6.672 4.67224C6.30933 4.67224 5.976 4.7629 5.672 4.94424C5.368 5.12557 5.12533 5.36824 4.944 5.67224C4.76267 5.97624 4.672 6.30957 4.672 6.67224C4.672 7.0349 4.76267 7.36824 4.944 7.67224C5.12533 7.97624 5.368 8.2189 5.672 8.40024C5.976 8.58157 6.30933 8.67224 6.672 8.67224C7.03467 8.67224 7.368 8.58157 7.672 8.40024C7.976 8.2189 8.21867 7.97624 8.4 7.67224C8.58133 7.36824 8.672 7.0349 8.672 6.67224C8.672 6.30957 8.58133 5.97624 8.4 5.67224C8.21867 5.36824 7.976 5.12557 7.672 4.94424C7.368 4.7629 7.03467 4.67224 6.672 4.67224ZM6.672 3.34424C7.28 3.34424 7.83733 3.49357 8.344 3.79224C8.85067 4.0909 9.25333 4.49357 9.552 5.00024C9.85067 5.5069 10 6.06424 10 6.67224C10 7.28024 9.85067 7.83757 9.552 8.34424C9.25333 8.8509 8.85067 9.25357 8.344 9.55224C7.83733 9.8509 7.28 10.0002 6.672 10.0002C6.064 10.0002 5.50667 9.8509 5 9.55224C4.49333 9.25357 4.09067 8.8509 3.792 8.34424C3.49333 7.83757 3.344 7.28024 3.344 6.67224C3.344 6.06424 3.49333 5.5069 3.792 5.00024C4.09067 4.49357 4.49333 4.0909 5 3.79224C5.50667 3.49357 6.064 3.34424 6.672 3.34424ZM11.008 3.16824C11.008 3.4029 10.928 3.60024 10.768 3.76024C10.608 3.92024 10.4107 4.00024 10.176 4.00024C9.94133 4.00024 9.744 3.92024 9.584 3.76024C9.424 3.60024 9.344 3.4029 9.344 3.16824C9.344 2.93357 9.424 2.73624 9.584 2.57624C9.744 2.41624 9.94133 2.33624 10.176 2.33624C10.4107 2.33624 10.608 2.41624 10.768 2.57624C10.928 2.73624 11.008 2.93357 11.008 3.16824ZM6.672 1.34424C5.392 1.34424 4.496 1.3549 3.984 1.37624C3.49333 1.40824 3.09333 1.4829 2.784 1.60024C2.50667 1.7069 2.26667 1.86157 2.064 2.06424C1.86133 2.2669 1.70667 2.5069 1.6 2.78424C1.48267 3.10424 1.41067 3.5069 1.384 3.99224C1.35733 4.47757 1.344 5.36557 1.344 6.65624C1.344 7.9469 1.35467 8.84824 1.376 9.36024C1.408 9.8509 1.48267 10.2509 1.6 10.5602C1.70667 10.8376 1.86133 11.0776 2.064 11.2802C2.26667 11.4829 2.50667 11.6376 2.784 11.7442C3.09333 11.8616 3.49333 11.9336 3.984 11.9602C4.47467 11.9869 5.36533 12.0002 6.656 12.0002C7.94667 12.0002 8.848 11.9896 9.36 11.9682C9.84 11.9362 10.24 11.8616 10.56 11.7442C10.8373 11.6376 11.0773 11.4829 11.28 11.2802C11.4827 11.0776 11.6373 10.8376 11.744 10.5602C11.8827 10.2082 11.9573 9.80824 11.968 9.36024C11.9893 8.86957 12 7.9789 12 6.68824C12 5.39757 11.9893 4.49624 11.968 3.98424C11.936 3.50424 11.8613 3.10424 11.744 2.78424C11.6373 2.5069 11.4827 2.2669 11.28 2.06424C11.0773 1.86157 10.8373 1.7069 10.56 1.60024C10.24 1.4829 9.83733 1.4109 9.352 1.38424C8.86667 1.35757 7.97333 1.34424 6.672 1.34424ZM6.672 0.000237465C7.792 0.000237465 8.66133 0.0162373 9.28 0.0482378H9.424C10.032 0.0802374 10.5707 0.186904 11.04 0.368237C11.5093 0.549571 11.904 0.800238 12.224 1.12024C12.544 1.44024 12.7947 1.8349 12.976 2.30424C13.1573 2.77357 13.264 3.31224 13.296 3.92024V4.06424C13.328 4.6829 13.344 5.55224 13.344 6.67224C13.344 7.79224 13.328 8.66157 13.296 9.28024V9.42424C13.264 10.0322 13.1573 10.5709 12.976 11.0402C12.7947 11.5096 12.544 11.9042 12.224 12.2242C11.904 12.5442 11.5093 12.7949 11.04 12.9762C10.5707 13.1576 10.032 13.2642 9.424 13.2962H9.28C8.66133 13.3282 7.792 13.3442 6.672 13.3442C5.552 13.3442 4.68267 13.3282 4.064 13.2962H3.92C3.312 13.2642 2.77333 13.1629 2.304 12.9922C1.856 12.8109 1.46133 12.5549 1.12 12.2242C0.8 11.9042 0.549333 11.5096 0.368 11.0402C0.186667 10.5709 0.08 10.0322 0.048 9.42424V9.28024C0.016 8.66157 0 7.79224 0 6.67224C0 5.55224 0.016 4.6829 0.048 4.06424V3.92024C0.08 3.31224 0.186667 2.77357 0.368 2.30424C0.549333 1.8349 0.8 1.44024 1.12 1.12024C1.46133 0.789571 1.856 0.533571 2.304 0.352238C2.77333 0.181571 3.312 0.0802374 3.92 0.0482378H4.064C4.68267 0.0162373 5.552 0.000237465 6.672 0.000237465Z" fill="white"/>
</svg>

