<svg width="16" height="16" viewBox="0 0 16 16" fill="none" xmlns="http://www.w3.org/2000/svg">
<path fill-rule="evenodd" clip-rule="evenodd" d="M10.7222 7.06944C10.9361 7.06944 11.1111 6.89444 11.1111 6.68056V2.01389C11.1111 1.8 10.9361 1.625 10.7222 1.625H8.77778V3.76389C8.77778 3.87084 8.69029 3.95833 8.58333 3.95833H7.41667C7.30971 3.95833 7.22222 3.87084 7.22222 3.76389V1.625H5.27778C5.06389 1.625 4.88889 1.8 4.88889 2.01389V6.68056C4.88889 6.89444 5.06389 7.06944 5.27778 7.06944H10.7222ZM6.83333 14.0694C7.04722 14.0694 7.22222 13.8944 7.22222 13.6806V9.01389C7.22222 8.8 7.04722 8.625 6.83333 8.625H4.88889V10.7639C4.88889 10.8708 4.8014 10.9583 4.69444 10.9583H3.52778C3.42082 10.9583 3.33333 10.8708 3.33333 10.7639V8.625H1.38889C1.175 8.625 1 8.8 1 9.01389V13.6806C1 13.8944 1.175 14.0694 1.38889 14.0694H6.83333ZM14.6111 14.0694C14.825 14.0694 15 13.8944 15 13.6806V9.01389C15 8.8 14.825 8.625 14.6111 8.625H12.6667V10.7639C12.6667 10.8708 12.5792 10.9583 12.4722 10.9583H11.3056C11.1986 10.9583 11.1111 10.8708 11.1111 10.7639V8.625H9.16667C8.95278 8.625 8.77778 8.8 8.77778 9.01389V13.6806C8.77778 13.8944 8.95278 14.0694 9.16667 14.0694H14.6111Z" fill="black"/>
</svg>
