<svg width="60" height="60" viewBox="0 0 60 60" fill="none" xmlns="http://www.w3.org/2000/svg">
<g clip-path="url(#clip0_1_5094)">
<g clip-path="url(#clip1_1_5094)">
<path d="M30.2833 43.5962C29.9057 43.597 29.5314 43.5244 29.1815 43.3824C28.8329 43.2411 28.5155 43.0328 28.2471 42.7693L25.2796 39.8499C25.1012 39.6737 24.8899 39.5344 24.6577 39.4399C24.4244 39.3448 24.1747 39.2962 23.9227 39.2968H19.7227C18.9621 39.2969 18.2318 38.9989 17.6883 38.4668C17.149 37.9356 16.8446 37.2168 16.8446 36.4662V32.3374C16.8451 32.0893 16.7955 31.8436 16.699 31.6149C16.6019 31.3854 16.4599 31.1776 16.2815 31.0037L13.3127 28.0843C13.0464 27.8234 12.8348 27.512 12.6902 27.1684C12.5455 26.8248 12.4707 26.4559 12.4702 26.0831C12.4702 25.3331 12.7733 24.6131 13.3127 24.0818L16.2815 21.1618C16.4608 20.9868 16.6027 20.7793 16.699 20.5506C16.7958 20.3212 16.8452 20.0756 16.844 19.8281V15.6999C16.845 15.3272 16.9202 14.9585 17.0652 14.6151C17.2102 14.2717 17.422 13.9607 17.6883 13.6999C18.2318 13.1674 18.9624 12.8692 19.7233 12.8693H23.9221C24.174 12.8699 24.424 12.8212 24.6565 12.7262C24.8896 12.6318 25.1008 12.4924 25.279 12.3162L28.2465 9.39807C28.7986 8.88197 29.5263 8.59528 30.2821 8.59619C31.0402 8.59619 31.7696 8.88369 32.3183 9.39807L35.2871 12.3168C35.6492 12.6718 36.1362 12.8705 36.6433 12.8699H40.8433C41.6038 12.8697 42.3342 13.1674 42.8777 13.6993C43.4171 14.2306 43.7208 14.9493 43.7215 15.6999V19.8281C43.7215 20.0762 43.7702 20.3218 43.8671 20.5506C43.9633 20.7793 44.1052 20.9874 44.284 21.1618L47.2521 24.0818C47.5196 24.3443 47.7315 24.6568 47.8758 25.0006C48.0203 25.3433 48.0947 25.7115 48.0947 26.0834C48.0947 26.4553 48.0203 26.8235 47.8758 27.1662C47.7306 27.5104 47.5186 27.8225 47.2521 28.0843L44.284 31.0031C44.1052 31.1781 43.9633 31.3862 43.8671 31.6156C43.7708 31.8443 43.7215 32.0893 43.7215 32.3374V36.4662C43.7206 36.839 43.6455 37.2078 43.5006 37.5513C43.3558 37.8948 43.144 38.206 42.8777 38.4668C42.3341 38.9991 41.6035 39.2971 40.8427 39.2968H36.644C36.3922 39.296 36.1428 39.3444 35.9096 39.4393C35.6773 39.5339 35.466 39.6735 35.2877 39.8499L32.3183 42.7687C32.0508 43.0318 31.734 43.2406 31.3846 43.3824C31.0348 43.5244 30.6608 43.597 30.2833 43.5962ZM19.7233 13.8124C19.2162 13.8126 18.7294 14.0113 18.3671 14.3662C18.1896 14.54 18.0485 14.7474 17.952 14.9763C17.8554 15.2051 17.8053 15.4509 17.8046 15.6993V19.8274C17.8055 20.1997 17.7313 20.5683 17.5865 20.9112C17.4411 21.2556 17.2284 21.5676 16.9608 21.8287L13.9921 24.7487C13.8144 24.9226 13.6732 25.1302 13.5766 25.3593C13.4801 25.5884 13.4301 25.8344 13.4296 26.0831C13.4296 26.5831 13.6321 27.0631 13.9921 27.4174L16.9608 30.3362C17.2296 30.5987 17.4421 30.9106 17.5865 31.2537C17.7315 31.5974 17.8052 31.9662 17.804 32.3374V36.4662C17.8046 36.9662 18.0071 37.4462 18.3665 37.7999C18.7288 38.1547 19.2157 38.3533 19.7227 38.3531H23.9221C24.3 38.3521 24.6745 38.4249 25.0246 38.5674C25.374 38.7093 25.6908 38.9187 25.9577 39.1824L28.9252 42.1012C29.2883 42.4553 29.7756 42.6531 30.2827 42.6524C30.7915 42.6524 31.2796 42.4543 31.6402 42.1018L34.609 39.1824C34.8766 38.9179 35.1936 38.7087 35.5421 38.5668C35.8922 38.4245 36.2667 38.3519 36.6446 38.3531H40.8433C41.3504 38.3533 41.8373 38.1547 42.1996 37.7999C42.5596 37.4462 42.7621 36.9662 42.7621 36.4662V32.3374C42.7611 31.9652 42.8353 31.5966 42.9802 31.2537C43.1256 30.9095 43.3383 30.5977 43.6058 30.3368L46.5733 27.4174C46.7521 27.2424 46.8933 27.0343 46.9896 26.8049C47.1352 26.4601 47.1733 26.0794 47.099 25.7125C47.0248 25.3457 46.8416 25.0098 46.5733 24.7487L43.6058 21.8287C43.3371 21.5662 43.1246 21.2549 42.9802 20.9112C42.8356 20.5682 42.7616 20.1996 42.7627 19.8274V15.6993C42.762 15.4509 42.7119 15.2051 42.6153 14.9763C42.5188 14.7474 42.3777 14.54 42.2002 14.3662C41.838 14.0113 41.3511 13.8125 40.844 13.8124H36.644C36.2663 13.8136 35.892 13.741 35.5421 13.5987C35.1936 13.4568 34.8765 13.2476 34.609 12.9831L31.6402 10.0649C31.2721 9.7208 30.7867 9.52974 30.2827 9.53057C29.7771 9.53057 29.2908 9.72182 28.9252 10.0649L25.9577 12.9837C25.6901 13.248 25.373 13.457 25.0246 13.5987C24.6745 13.7411 24.3 13.8137 23.9221 13.8124H19.7233Z" fill="#263238"/>
<path d="M36.6771 40.4712C36.5502 40.4715 36.4285 40.5218 36.3383 40.6112L33.3527 43.5587C32.9546 43.9512 32.4846 44.2634 31.9683 44.4781L36.0558 54.2218L38.6671 47.9974L44.9702 50.5756L40.7321 40.4712H36.6771ZM27.2108 43.5587L24.2252 40.6112C24.1807 40.5667 24.1279 40.5315 24.0698 40.5074C24.0117 40.4834 23.9494 40.4711 23.8865 40.4712H19.8333L15.5952 50.5756L21.8983 47.9974L24.5096 54.2212L28.5971 44.4781C28.0801 44.264 27.6094 43.9514 27.2108 43.5587Z" fill="#0067B2"/>
<path d="M35.8701 54.8462C35.7772 54.8463 35.6865 54.8185 35.6096 54.7665C35.5327 54.7145 35.4732 54.6406 35.4388 54.5543L31.4807 44.8731C31.4439 44.7863 31.4336 44.6907 31.4509 44.5981C31.4682 44.5054 31.5125 44.42 31.5782 44.3524C31.6216 44.3082 31.6733 44.2731 31.7304 44.249C31.7875 44.225 31.8488 44.2126 31.9107 44.2124C31.9728 44.2125 32.0343 44.225 32.0915 44.2494C32.1486 44.2738 32.2002 44.3095 32.2432 44.3543C32.2863 44.3993 32.3201 44.4524 32.3432 44.5106L35.8701 53.1356L37.9682 48.0081C38.0152 47.8926 38.106 47.8005 38.2207 47.7518C38.2773 47.728 38.3381 47.7158 38.3995 47.7158C38.4608 47.7158 38.5216 47.728 38.5782 47.7518L43.6395 49.8787L39.9676 40.8949C39.9306 40.8082 39.92 40.7124 39.9373 40.6197C39.9545 40.527 39.9988 40.4414 40.0645 40.3737C40.1079 40.3294 40.1598 40.2942 40.2169 40.2702C40.2741 40.2462 40.3355 40.2338 40.3976 40.2337C40.4596 40.2339 40.521 40.2467 40.578 40.2712C40.6351 40.2956 40.6866 40.3314 40.7295 40.3762C40.7732 40.4206 40.807 40.4737 40.8295 40.5324L44.9351 50.5718C44.9699 50.6584 44.9788 50.7532 44.9608 50.8448C44.9427 50.9363 44.8984 51.0206 44.8332 51.0874C44.7681 51.1533 44.6849 51.1982 44.5942 51.2166C44.5035 51.2349 44.4094 51.2259 44.3238 51.1906L38.652 48.8099L36.3032 54.5562C36.2686 54.6427 36.2087 54.7167 36.1313 54.7686C36.0539 54.8204 35.9626 54.8477 35.8695 54.8468L35.8701 54.8462ZM24.6932 54.8462C24.6004 54.8463 24.5096 54.8185 24.4328 54.7665C24.3559 54.7145 24.2964 54.6406 24.262 54.5543L21.912 48.8081L16.2413 51.1893C16.1558 51.2251 16.0615 51.2343 15.9707 51.2158C15.8799 51.1973 15.7967 51.1519 15.732 51.0856C15.6661 51.0191 15.6214 50.9346 15.6032 50.8428C15.5851 50.751 15.5945 50.6559 15.6301 50.5693L19.7338 40.5299C19.7555 40.4704 19.7889 40.4157 19.8321 40.3692C19.8752 40.3227 19.9273 40.2854 19.9851 40.2593C20.072 40.2206 20.1688 40.2097 20.2622 40.2281C20.3556 40.2464 20.4411 40.2931 20.507 40.3618C20.5513 40.4076 20.586 40.4619 20.6089 40.5214C20.6317 40.5809 20.6424 40.6444 20.6401 40.7081C20.6382 40.772 20.6235 40.8349 20.597 40.8931L16.9251 49.8762L21.9863 47.7506C22.0431 47.7264 22.1041 47.7139 22.1657 47.7137C22.2274 47.7135 22.2885 47.7257 22.3453 47.7495C22.4022 47.7734 22.4537 47.8084 22.4968 47.8524C22.5399 47.8965 22.5738 47.9488 22.5963 48.0062L24.6945 53.1337L28.2207 44.5093C28.268 44.3939 28.359 44.3018 28.4738 44.2531C28.5592 44.2172 28.6534 44.2079 28.7441 44.2263C28.8348 44.2447 28.9179 44.2899 28.9826 44.3562C29.0708 44.4453 29.12 44.5658 29.1195 44.6912C29.1195 44.7537 29.107 44.8149 29.0838 44.8724L25.1263 54.5518C25.0924 54.6388 25.0329 54.7135 24.9557 54.766C24.8785 54.8186 24.7866 54.8465 24.6932 54.8462ZM30.2782 35.9749C28.3349 35.974 26.4366 35.3906 24.8282 34.2999C23.2105 33.2019 21.9536 31.6499 21.2157 29.8393C20.4731 28.0207 20.2791 26.0244 20.6576 24.0968C21.0334 22.1736 21.967 20.4036 23.342 19.0074C24.7078 17.6207 26.4567 16.6736 28.3645 16.2874C30.2676 15.9037 32.2395 16.1006 34.032 16.8531C35.8299 17.6099 37.3623 18.884 38.4345 20.5137C39.6956 22.4298 40.2621 24.7202 40.0395 27.0032C39.817 29.2863 38.8188 31.4241 37.2113 33.0606C36.306 33.981 35.227 34.7125 34.0369 35.2128C32.8468 35.713 31.5692 35.9721 30.2782 35.9749ZM30.2782 17.0437C28.5232 17.0437 26.807 17.5706 25.3476 18.5587C23.8838 19.552 22.7465 20.9562 22.0788 22.5943C21.4069 24.2398 21.2313 26.0459 21.5738 27.7899C21.9139 29.5299 22.7586 31.1312 24.0026 32.3943C25.2384 33.6489 26.8209 34.5058 28.547 34.8549C30.2688 35.2024 32.0532 35.0237 33.6745 34.3437C35.3012 33.6589 36.6877 32.5059 37.6576 31.0312C38.634 29.5481 39.154 27.8112 39.1532 26.0356C39.153 23.6577 38.2183 21.3751 36.5507 19.6799C35.7316 18.8473 34.7555 18.1855 33.6787 17.7328C32.602 17.2802 31.4462 17.0457 30.2782 17.0431V17.0437Z" fill="#263238"/>
<path d="M37.0449 26.7212C36.9514 26.7214 36.8599 26.6937 36.7823 26.6416C36.7047 26.5895 36.6444 26.5153 36.6092 26.4287C36.5857 26.3712 36.5736 26.3096 36.5736 26.2474C36.5726 24.6131 35.9264 23.0453 34.7755 21.8849C34.2079 21.3127 33.5329 20.8582 32.7892 20.5476C32.0455 20.237 31.2477 20.0763 30.4417 20.0749C30.3482 20.0751 30.2567 20.0473 30.179 19.9951C30.1014 19.9429 30.0412 19.8686 30.0061 19.7818C29.9583 19.6656 29.9582 19.5353 30.006 19.4191C30.0537 19.3029 30.1454 19.2102 30.2611 19.1612C30.3183 19.1373 30.3797 19.125 30.4417 19.1249C31.3717 19.1269 32.2921 19.3124 33.1501 19.671C34.0081 20.0295 34.7869 20.554 35.4417 21.2143C36.7694 22.553 37.5151 24.3615 37.5167 26.2468C37.5165 26.3404 37.4887 26.4319 37.437 26.5099C37.3852 26.5879 37.3117 26.649 37.2255 26.6856C37.1682 26.7092 37.1068 26.7214 37.0449 26.7212ZM45.123 7.67119H41.3486C41.2236 7.67119 41.1036 7.62119 41.0149 7.53244C40.949 7.46593 40.9043 7.3815 40.8861 7.28969C40.868 7.19788 40.8773 7.10277 40.9129 7.01622C40.9485 6.92968 41.0088 6.85554 41.0863 6.80307C41.1638 6.7506 41.255 6.72212 41.3486 6.72119H45.1236C45.2436 6.7299 45.3559 6.78373 45.4379 6.87185C45.5198 6.95997 45.5654 7.07585 45.5654 7.19619C45.5654 7.31653 45.5198 7.43241 45.4379 7.52053C45.3559 7.60865 45.243 7.66248 45.123 7.67119Z" fill="#263238"/>
<path d="M42.9565 9.53369C42.8284 9.53392 42.7053 9.48465 42.6127 9.39619C42.5679 9.3534 42.5322 9.30201 42.5077 9.24509C42.4832 9.18817 42.4705 9.1269 42.4702 9.06494V5.31494C42.4702 5.19119 42.5215 5.07119 42.6127 4.98369C42.7052 4.89518 42.8284 4.8459 42.9565 4.84619C43.0852 4.84619 43.209 4.89619 43.3002 4.98369C43.3915 5.07119 43.4427 5.19119 43.4427 5.31494V9.06494C43.4427 9.18994 43.3908 9.30869 43.3002 9.39619C43.2077 9.48471 43.0845 9.53398 42.9565 9.53369ZM50.734 12.3462H46.8446C46.7165 12.3465 46.5934 12.2972 46.5008 12.2087C46.456 12.1659 46.4203 12.1145 46.3958 12.0576C46.3713 12.0007 46.3586 11.9394 46.3583 11.8774C46.3583 11.7531 46.4096 11.6337 46.5008 11.5462C46.5934 11.4577 46.7165 11.4084 46.8446 11.4087H50.734C50.8627 11.4087 50.9865 11.4587 51.0777 11.5462C51.169 11.6337 51.2202 11.7531 51.2202 11.8774C51.2202 12.0024 51.169 12.1212 51.0777 12.2087C50.9852 12.2972 50.862 12.3465 50.734 12.3462Z" fill="#263238"/>
<path d="M48.9239 13.9388C48.7979 13.9391 48.6769 13.8896 48.5871 13.8013C48.5429 13.7576 48.5079 13.7056 48.4839 13.6484C48.46 13.5911 48.4477 13.5296 48.4477 13.4675V9.69376C48.4477 9.56876 48.4977 9.44876 48.5871 9.36001C48.6767 9.27124 48.7978 9.22144 48.9239 9.22144C49.0501 9.22144 49.1712 9.27124 49.2608 9.36001C49.3051 9.40361 49.3402 9.45556 49.3643 9.51285C49.3883 9.57014 49.4007 9.63164 49.4008 9.69376V13.4688C49.4008 13.5938 49.3502 13.7131 49.2608 13.8019C49.1708 13.8904 49.0495 13.9398 48.9233 13.9394L48.9239 13.9388ZM11.7021 34.2213H4.55518C4.42917 34.2216 4.30812 34.1721 4.2183 34.0838C4.17416 34.0401 4.13912 33.9881 4.1152 33.9308C4.09128 33.8736 4.07896 33.8121 4.07896 33.75C4.07896 33.6879 4.09128 33.6265 4.1152 33.5692C4.13912 33.5119 4.17416 33.4599 4.2183 33.4163C4.30818 33.3275 4.42949 33.2779 4.5558 33.2781H11.7021C11.8283 33.2781 11.9496 33.3281 12.0389 33.4156C12.0831 33.4592 12.1183 33.5112 12.1422 33.5685C12.1662 33.6258 12.1785 33.6873 12.1785 33.7494C12.1785 33.8115 12.1662 33.873 12.1422 33.9303C12.1183 33.9876 12.0831 34.0395 12.0389 34.0831C11.9491 34.1719 11.8284 34.2215 11.7021 34.2213ZM2.64955 34.2213H1.69705C1.57083 34.2217 1.44953 34.1723 1.35955 34.0838C1.31541 34.0401 1.28037 33.9881 1.25645 33.9308C1.23253 33.8736 1.22021 33.8121 1.22021 33.75C1.22021 33.6879 1.23253 33.6265 1.25645 33.5692C1.28037 33.5119 1.31541 33.4599 1.35955 33.4163C1.44943 33.3275 1.57074 33.2779 1.69705 33.2781H2.64955C2.77643 33.2781 2.89768 33.3281 2.98705 33.4156C3.03127 33.4592 3.06638 33.5112 3.09035 33.5685C3.11432 33.6258 3.12666 33.6873 3.12666 33.7494C3.12666 33.8115 3.11432 33.873 3.09035 33.9303C3.06638 33.9876 3.03127 34.0395 2.98705 34.0831C2.89718 34.1719 2.77587 34.2215 2.64955 34.2213ZM56.0102 34.2213H48.8627C48.7367 34.2216 48.6156 34.1721 48.5258 34.0838C48.4817 34.0401 48.4466 33.9881 48.4227 33.9308C48.3988 33.8736 48.3865 33.8121 48.3865 33.75C48.3865 33.6879 48.3988 33.6265 48.4227 33.5692C48.4466 33.5119 48.4817 33.4599 48.5258 33.4163C48.6157 33.3275 48.737 33.2779 48.8633 33.2781H56.0096C56.1358 33.2781 56.2571 33.3281 56.3464 33.4156C56.3906 33.4592 56.4258 33.5112 56.4497 33.5685C56.4737 33.6258 56.486 33.6873 56.486 33.7494C56.486 33.8115 56.4737 33.873 56.4497 33.9303C56.4258 33.9876 56.3906 34.0395 56.3464 34.0831C56.2566 34.1719 56.1352 34.2215 56.0089 34.2213H56.0102ZM58.8683 34.2213H57.9158C57.7896 34.2217 57.6683 34.1723 57.5783 34.0838C57.5342 34.0401 57.4991 33.9881 57.4752 33.9308C57.4513 33.8736 57.439 33.8121 57.439 33.75C57.439 33.6879 57.4513 33.6265 57.4752 33.5692C57.4991 33.5119 57.5342 33.4599 57.5783 33.4163C57.6682 33.3275 57.7895 33.2779 57.9158 33.2781H58.8683C58.9952 33.2781 59.1164 33.3281 59.2058 33.4156C59.25 33.4592 59.2851 33.5112 59.3091 33.5685C59.3331 33.6258 59.3454 33.6873 59.3454 33.7494C59.3454 33.8115 59.3331 33.873 59.3091 33.9303C59.2851 33.9876 59.25 34.0395 59.2058 34.0831C59.1159 34.1719 58.9946 34.2215 58.8683 34.2213Z" fill="#263238"/>
</g>
</g>
<defs>
<clipPath id="clip0_1_5094">
<rect width="60" height="60" fill="white"/>
</clipPath>
<clipPath id="clip1_1_5094">
<rect width="60" height="60" fill="white"/>
</clipPath>
</defs>
</svg>
