<svg width="53" height="15" viewBox="0 0 53 15" fill="none" xmlns="http://www.w3.org/2000/svg">
<g clip-path="url(#clip0_1_6484)">
<g clip-path="url(#clip1_1_6484)">
<g clip-path="url(#clip2_1_6484)">
<mask id="mask0_1_6484" style="mask-type:luminance" maskUnits="userSpaceOnUse" x="0" y="0" width="53" height="15">
<path d="M53 0H0V15H53V0Z" fill="white"/>
</mask>
<g mask="url(#mask0_1_6484)">
<mask id="mask1_1_6484" style="mask-type:luminance" maskUnits="userSpaceOnUse" x="0" y="0" width="53" height="15">
<path d="M52.5 0.600098H0V14.6001H52.5V0.600098Z" fill="white"/>
</mask>
<g mask="url(#mask1_1_6484)">
<path d="M6.63704 0.712891H2.61204C2.33704 0.712891 2.09954 0.912882 2.06204 1.18788L0.437045 11.4878C0.399545 11.6878 0.562045 11.8753 0.774545 11.8753H2.69954C2.97454 11.8753 3.21204 11.6754 3.24954 11.4004L3.68704 8.62538C3.72454 8.35038 3.96204 8.15039 4.23704 8.15039H5.49954C8.14954 8.15039 9.67454 6.8754 10.0746 4.3254C10.2496 3.2129 10.0871 2.33789 9.56204 1.72539C8.98704 1.07539 7.97454 0.712891 6.63704 0.712891ZM7.09954 4.48789C6.87454 5.92539 5.77454 5.92539 4.71204 5.92539H4.09954L4.52454 3.23789C4.54954 3.07539 4.68704 2.9504 4.84954 2.9504H5.12454C5.84954 2.9504 6.53704 2.95039 6.88704 3.36289C7.11204 3.61289 7.17454 3.97539 7.09954 4.48789Z" fill="#283B82"/>
<path d="M18.6493 4.43799H16.7243C16.5618 4.43799 16.4243 4.563 16.3993 4.7255L16.3118 5.26301L16.1743 5.06299C15.7618 4.46299 14.8243 4.25049 13.8993 4.25049C11.7743 4.25049 9.96183 5.86299 9.59933 8.12549C9.41183 9.25049 9.67433 10.3255 10.3118 11.088C10.8993 11.7755 11.7368 12.0629 12.7368 12.0629C14.4493 12.0629 15.3993 10.963 15.3993 10.963L15.3118 11.5004C15.2743 11.7004 15.4368 11.888 15.6368 11.888H17.3743C17.6493 11.888 17.8868 11.688 17.9243 11.413L18.9618 4.82551C19.0118 4.62551 18.8493 4.43799 18.6493 4.43799ZM15.9618 8.18799C15.7743 9.28799 14.8993 10.0255 13.7868 10.0255C13.2243 10.0255 12.7868 9.85049 12.4993 9.50049C12.2118 9.16299 12.1118 8.688 12.1993 8.1505C12.3743 7.063 13.2618 6.3005 14.3618 6.3005C14.9118 6.3005 15.3493 6.48801 15.6493 6.82551C15.9243 7.16301 16.0493 7.65049 15.9618 8.18799Z" fill="#283B82"/>
<path d="M28.8994 4.43799H26.9619C26.7744 4.43799 26.5994 4.52549 26.4994 4.68799L23.8369 8.613L22.7119 4.838C22.6369 4.6005 22.4244 4.43799 22.1744 4.43799H20.2744C20.0494 4.43799 19.8869 4.66299 19.9619 4.87549L22.0869 11.1254L20.0869 13.9504C19.9244 14.1754 20.0869 14.4754 20.3619 14.4754H22.2994C22.4869 14.4754 22.6494 14.3879 22.7619 14.2379L29.1994 4.95051C29.3244 4.73801 29.1619 4.43799 28.8994 4.43799Z" fill="#283B82"/>
<path d="M35.2992 0.712891H31.2742C30.9992 0.712891 30.7617 0.912882 30.7242 1.18788L29.0992 11.4878C29.0617 11.6878 29.2242 11.8753 29.4242 11.8753H31.4992C31.6867 11.8753 31.8492 11.7378 31.8867 11.5503L32.3492 8.62538C32.3867 8.35038 32.6242 8.15039 32.8992 8.15039H34.1742C36.8242 8.15039 38.3492 6.8754 38.7492 4.3254C38.9242 3.2129 38.7617 2.33789 38.2367 1.72539C37.6617 1.07539 36.6492 0.712891 35.2992 0.712891ZM35.7617 4.48789C35.5367 5.92539 34.4367 5.92539 33.3742 5.92539H32.7742L33.1992 3.23789C33.2242 3.07539 33.3617 2.9504 33.5242 2.9504H33.7992C34.5242 2.9504 35.2117 2.95039 35.5617 3.36289C35.7742 3.61289 35.8367 3.97539 35.7617 4.48789Z" fill="#469BDB"/>
<path d="M47.3124 4.43799H45.3874C45.2249 4.43799 45.0874 4.563 45.0624 4.7255L44.9749 5.26301L44.8374 5.06299C44.4249 4.46299 43.4874 4.25049 42.5624 4.25049C40.4374 4.25049 38.6249 5.86299 38.2624 8.12549C38.0749 9.25049 38.3374 10.3255 38.9749 11.088C39.5624 11.7755 40.3999 12.0629 41.3999 12.0629C43.1124 12.0629 44.0624 10.963 44.0624 10.963L43.9749 11.5004C43.9374 11.7004 44.0999 11.888 44.3124 11.888H46.0499C46.3249 11.888 46.5624 11.688 46.5999 11.413L47.6374 4.82551C47.6749 4.62551 47.5124 4.43799 47.3124 4.43799ZM44.6249 8.18799C44.4374 9.28799 43.5624 10.0255 42.4499 10.0255C41.8874 10.0255 41.4499 9.85049 41.1624 9.50049C40.8749 9.16299 40.7749 8.688 40.8624 8.1505C41.0374 7.063 41.9249 6.3005 43.0249 6.3005C43.5749 6.3005 44.0124 6.48801 44.3124 6.82551C44.5999 7.16301 44.7124 7.65049 44.6249 8.18799Z" fill="#469BDB"/>
<path d="M49.5744 1.00046L47.9244 11.5004C47.8869 11.7004 48.0494 11.8879 48.2494 11.8879H49.9119C50.1869 11.8879 50.4244 11.6879 50.4619 11.4129L52.0869 1.11297C52.1244 0.912968 51.9619 0.725471 51.7619 0.725471H49.8994C49.7494 0.712971 49.6119 0.837965 49.5744 1.00046Z" fill="#469BDB"/>
</g>
</g>
</g>
</g>
</g>
<defs>
<clipPath id="clip0_1_6484">
<rect width="53" height="15" fill="white"/>
</clipPath>
<clipPath id="clip1_1_6484">
<rect width="53" height="15" fill="white"/>
</clipPath>
<clipPath id="clip2_1_6484">
<rect width="53" height="15" fill="white"/>
</clipPath>
</defs>
</svg>
