<svg width="24" height="24" viewBox="0 0 24 24" fill="none" xmlns="http://www.w3.org/2000/svg">
<path d="M12 10C14.2091 10 16 8.20914 16 6C16 3.79086 14.2091 2 12 2C9.79086 2 8 3.79086 8 6C8 8.20914 9.79086 10 12 10Z" stroke="white" stroke-width="1.6"/>
<path d="M2.39996 22C2.17905 22 1.99888 21.8208 2.01028 21.6001C2.1233 19.4117 3.16091 17.3333 4.92889 15.7775C6.80426 14.1271 9.34779 13.2 12 13.2C14.6522 13.2 17.1957 14.1271 19.0711 15.7775C20.8391 17.3333 21.8767 19.4117 21.9897 21.6001C22.0011 21.8208 21.8209 22 21.6 22H12H2.39996Z" stroke="white" stroke-width="1.6" stroke-linejoin="round"/>
</svg>
