<svg width="40" height="36" viewBox="0 0 40 36" fill="none" xmlns="http://www.w3.org/2000/svg">
<path d="M36.5273 7.5C37.323 7.5 38.0861 7.81607 38.6487 8.37868C39.2113 8.94129 39.5273 9.70435 39.5273 10.5V33C39.5273 33.7956 39.2113 34.5587 38.6487 35.1213C38.0861 35.6839 37.323 36 36.5273 36H3.52734C2.73169 36 1.96863 35.6839 1.40602 35.1213C0.843414 34.5587 0.527344 33.7956 0.527344 33V10.5C0.527344 9.70435 0.843414 8.94129 1.40602 8.37868C1.96863 7.81607 2.73169 7.5 3.52734 7.5H36.5273ZM36.5273 10.5H3.52734V33H36.5273V10.5Z" fill="black"/>
<path d="M36.5273 9L30.3453 1.94C30.0643 1.65862 29.683 1.50035 29.2853 1.5H10.7673C10.3697 1.50035 9.98838 1.65862 9.70734 1.94L3.52734 8.12L36.5273 9Z" stroke="black" stroke-width="3"/>
<path d="M19.4973 12.9699L20.5573 14.03C20.6978 14.1706 20.7767 14.3612 20.7767 14.5599C20.7767 14.7587 20.6978 14.9493 20.5573 15.09L17.6473 18H28.2773C28.6913 18 29.0273 18.336 29.0273 18.75V27.75C29.0273 27.9489 28.9483 28.1396 28.8077 28.2803C28.667 28.4209 28.4763 28.5 28.2773 28.5H11.7773C11.5784 28.5 11.3877 28.4209 11.247 28.2803C11.1064 28.1396 11.0273 27.9489 11.0273 27.75V26.25C11.0273 25.836 11.3633 25.5 11.7773 25.5H26.0273V21H12.2173C12.0691 20.9998 11.9242 20.9558 11.801 20.8733C11.6778 20.7909 11.5818 20.6738 11.5251 20.5369C11.4683 20.3999 11.4535 20.2492 11.4824 20.1038C11.5113 19.9584 11.5826 19.8248 11.6873 19.7199L18.4373 12.9699C18.578 12.8295 18.7686 12.7506 18.9673 12.7506C19.1661 12.7506 19.3567 12.8295 19.4973 12.9699Z" fill="#DF0024"/>
</svg>
