<svg width="22" height="22" viewBox="0 0 22 22" fill="none" xmlns="http://www.w3.org/2000/svg">
<g clip-path="url(#clip0_4_13254)">
<path fill-rule="evenodd" clip-rule="evenodd" d="M4.7538 1.50941L8.42046 5.17607C8.59967 5.35482 8.59967 5.6454 8.42046 5.82415C8.42046 5.82415 6.49546 7.74915 6.11046 8.13417C5.86434 8.38075 5.92803 8.64886 5.9349 8.67407C6.18332 9.39778 6.8988 10.9877 8.8788 12.9677C10.8611 14.95 12.452 15.6646 13.1729 15.9121C13.3384 15.9689 13.5222 15.9263 13.6459 15.8025L16.0224 13.4261C16.2011 13.2469 16.4917 13.2469 16.6705 13.4261L20.3372 17.0927C20.5163 17.2715 20.5163 17.5621 20.3372 17.7408C20.3372 17.7408 19.0923 18.9857 18.2769 19.7974C17.7155 20.3588 16.9019 20.5904 16.1287 20.407C16.1273 20.4065 16.126 20.4061 16.1241 20.4056C14.3279 19.9591 10.5077 18.6428 6.85571 14.9908C3.20417 11.3393 1.88738 7.51907 1.43821 5.72378C1.43775 5.72194 1.43729 5.72011 1.43683 5.71828C1.2535 4.94461 1.48404 4.13061 2.04642 3.56869L4.10571 1.50941C4.28445 1.3302 4.57505 1.3302 4.7538 1.50941Z" fill="black"/>
</g>
<defs>
<clipPath id="clip0_4_13254">
<rect width="22" height="22" fill="white"/>
</clipPath>
</defs>
</svg>
