<svg width="39" height="37" viewBox="0 0 39 37" fill="none" xmlns="http://www.w3.org/2000/svg">
<path d="M9.75 26.25C11.1424 26.25 12.4777 26.8031 13.4623 27.7877C14.4469 28.7723 15 30.1076 15 31.5C15 32.8924 14.4469 34.2277 13.4623 35.2123C12.4777 36.1969 11.1424 36.75 9.75 36.75C8.35761 36.75 7.02225 36.1969 6.03769 35.2123C5.05312 34.2277 4.5 32.8924 4.5 31.5C4.5 30.1076 5.05312 28.7723 6.03769 27.7877C7.02225 26.8031 8.35761 26.25 9.75 26.25ZM29.25 26.25C30.6424 26.25 31.9777 26.8031 32.9623 27.7877C33.9469 28.7723 34.5 30.1076 34.5 31.5C34.5 32.8924 33.9469 34.2277 32.9623 35.2123C31.9777 36.1969 30.6424 36.75 29.25 36.75C27.8576 36.75 26.5223 36.1969 25.5377 35.2123C24.5531 34.2277 24 32.8924 24 31.5C24 30.1076 24.5531 28.7723 25.5377 27.7877C26.5223 26.8031 27.8576 26.25 29.25 26.25ZM9.75 29.25C9.45453 29.25 9.16194 29.3082 8.88896 29.4213C8.61598 29.5343 8.36794 29.7001 8.15901 29.909C7.95008 30.1179 7.78434 30.366 7.67127 30.639C7.5582 30.9119 7.5 31.2045 7.5 31.5C7.5 31.7955 7.5582 32.0881 7.67127 32.361C7.78434 32.634 7.95008 32.8821 8.15901 33.091C8.36794 33.2999 8.61598 33.4657 8.88896 33.5787C9.16194 33.6918 9.45453 33.75 9.75 33.75C10.3467 33.75 10.919 33.5129 11.341 33.091C11.7629 32.669 12 32.0967 12 31.5C12 30.9033 11.7629 30.331 11.341 29.909C10.919 29.4871 10.3467 29.25 9.75 29.25ZM29.25 29.25C28.9545 29.25 28.6619 29.3082 28.389 29.4213C28.116 29.5343 27.8679 29.7001 27.659 29.909C27.4501 30.1179 27.2843 30.366 27.1713 30.639C27.0582 30.9119 27 31.2045 27 31.5C27 31.7955 27.0582 32.0881 27.1713 32.361C27.2843 32.634 27.4501 32.8821 27.659 33.091C27.8679 33.2999 28.116 33.4657 28.389 33.5787C28.6619 33.6918 28.9545 33.75 29.25 33.75C29.8467 33.75 30.419 33.5129 30.841 33.091C31.2629 32.669 31.5 32.0967 31.5 31.5C31.5 30.9033 31.2629 30.331 30.841 29.909C30.419 29.4871 29.8467 29.25 29.25 29.25ZM36 0C36.7957 0 37.5587 0.316071 38.1213 0.87868C38.6839 1.44129 39 2.20435 39 3V32.25C39 32.4489 38.921 32.6397 38.7803 32.7803C38.6397 32.921 38.4489 33 38.25 33H36.75C36.5511 33 36.3603 32.921 36.2197 32.7803C36.079 32.6397 36 32.4489 36 32.25V3H15V7.678L3.002 13.676L3 32.25C3 32.4489 2.92098 32.6397 2.78033 32.7803C2.63968 32.921 2.44891 33 2.25 33H0.75C0.551088 33 0.360322 32.921 0.21967 32.7803C0.0790175 32.6397 0 32.4489 0 32.25V13.676C0.00039028 13.1189 0.155892 12.5729 0.449082 12.0992C0.742273 11.6255 1.16157 11.2428 1.66 10.994L12 5.82V3C12 2.20435 12.3161 1.44129 12.8787 0.87868C13.4413 0.316071 14.2044 0 15 0H36ZM21.75 30C22.164 30 22.5 30.336 22.5 30.75V32.25C22.5 32.4489 22.421 32.6397 22.2803 32.7803C22.1397 32.921 21.9489 33 21.75 33H17.25C17.0511 33 16.8603 32.921 16.7197 32.7803C16.579 32.6397 16.5 32.4489 16.5 32.25V30.75C16.5 30.336 16.836 30 17.25 30H21.75Z" fill="black"/>
<path d="M15 12.75V21.75C15 21.9489 14.921 22.1397 14.7803 22.2803C14.6397 22.421 14.4489 22.5 14.25 22.5H6.75C6.55109 22.5 6.36032 22.421 6.21967 22.2803C6.07902 22.1397 6 21.9489 6 21.75V20.25C6 19.836 6.336 19.5 6.75 19.5H11.25C11.4489 19.5 11.6397 19.421 11.7803 19.2803C11.921 19.1397 12 18.9489 12 18.75V12.75C12 12.336 12.336 12 12.75 12H14.25C14.664 12 15 12.336 15 12.75Z" fill="#DF0024"/>
</svg>
