<svg width="36" height="13" viewBox="0 0 36 13" fill="none" xmlns="http://www.w3.org/2000/svg">
<mask id="mask0_1_6475" style="mask-type:luminance" maskUnits="userSpaceOnUse" x="0" y="0" width="36" height="13">
<path d="M36 0H0V13H36V0Z" fill="white"/>
</mask>
<g mask="url(#mask0_1_6475)">
<mask id="mask1_1_6475" style="mask-type:luminance" maskUnits="userSpaceOnUse" x="0" y="0" width="36" height="13">
<path d="M36 0.600098H0V12.6001H36V0.600098Z" fill="white"/>
</mask>
<g mask="url(#mask1_1_6475)">
<path d="M31.5998 4.9002L32.1998 8.1002H29.7998L30.9998 5.0002L31.1998 4.4002L31.2998 3.9002C31.2998 4.0002 31.5998 4.9002 31.5998 4.9002ZM8.89981 12.0002L13.2998 1.1002H10.2998L7.59981 8.6002L7.29981 7.0002L6.29981 2.0002C6.19981 1.4002 5.69981 1.0002 4.89981 1.0002H0.399805L0.299805 1.2002C1.49981 1.4002 2.39981 1.8002 3.29981 2.4002L5.89981 12.1002H8.99981L8.89981 12.0002ZM15.5998 12.0002L17.3998 1.1002H14.5998L12.7998 12.2002H15.5998V12.0002ZM25.6998 8.5002C25.6998 7.3002 24.8998 6.3002 23.2998 5.4002C22.0998 4.9002 21.4998 4.5002 21.4998 4.1002C21.4998 3.5002 22.0998 3.2002 23.2998 3.2002C23.9998 3.2002 24.6998 3.2002 25.2998 3.7002H25.6998L25.9998 1.2002C25.0998 0.800195 24.2998 0.700195 23.3998 0.700195C22.4998 0.700195 21.6998 0.900195 20.9998 1.2002C20.2998 1.5002 19.6998 1.9002 19.1998 2.5002C18.7998 3.1002 18.5998 3.7002 18.5998 4.4002C18.5998 5.6002 19.3998 6.6002 21.1998 7.5002C22.0998 8.0002 22.5998 8.40019 22.5998 8.80019C22.5998 9.50019 21.9998 10.0002 20.8998 10.0002C19.9998 10.0002 18.9998 9.8002 18.1998 9.4002L17.7998 9.2002L17.2998 11.6002C18.2998 12.0002 19.3998 12.3002 20.4998 12.3002C21.7998 12.4002 22.9998 12.0002 23.9998 11.4002C25.1998 10.6002 25.6998 9.6002 25.6998 8.5002ZM35.6998 12.0002L33.3998 1.1002H31.1998C30.4998 1.1002 29.9998 1.3002 29.7998 2.0002L25.4998 12.2002H28.4998L28.9998 10.6002H32.7998L33.1998 12.3002H35.7998V12.0002H35.6998Z" fill="url(#paint0_linear_1_6475)"/>
</g>
</g>
<defs>
<linearGradient id="paint0_linear_1_6475" x1="1.58171" y1="6.5086" x2="35.2447" y2="6.5086" gradientUnits="userSpaceOnUse">
<stop stop-color="#2C3572"/>
<stop offset="1" stop-color="#3C62AB"/>
</linearGradient>
</defs>
</svg>
