<svg width="33" height="39" viewBox="0 0 33 39" fill="none" xmlns="http://www.w3.org/2000/svg">
<path d="M16.366 1.84131C16.96 2.23531 17.246 2.43731 17.518 2.63731C22.13 6.03731 24.028 7.41931 31.5 7.41931V20.1593C31.5 23.9653 30.294 27.2793 27.872 30.0973C25.348 33.0313 21.548 35.4213 16.51 37.3213C11.464 35.4253 7.658 33.0353 5.132 30.1013C2.708 27.2833 1.5 23.9673 1.5 20.1573V7.41931C9.052 7.41931 10.914 6.01131 15.556 2.46131L16.366 1.84131Z" stroke="black" stroke-width="3"/>
<path d="M21.9693 15.8893L23.0293 16.9493C23.1698 17.0899 23.2487 17.2805 23.2487 17.4793C23.2487 17.678 23.1698 17.8686 23.0293 18.0093L16.0593 24.9793C15.7781 25.2602 15.3968 25.4179 14.9993 25.4179C14.6018 25.4179 14.2206 25.2602 13.9393 24.9793L9.96934 21.0093C9.82889 20.8686 9.75 20.678 9.75 20.4793C9.75 20.2805 9.82889 20.0899 9.96934 19.9493L11.0293 18.8893C11.17 18.7488 11.3606 18.6699 11.5593 18.6699C11.7581 18.6699 11.9487 18.7488 12.0893 18.8893L14.9993 21.7973L20.9073 15.8893C21.048 15.7488 21.2386 15.6699 21.4373 15.6699C21.6361 15.6699 21.8287 15.7488 21.9693 15.8893Z" fill="#DF0024"/>
</svg>
