<svg width="14" height="11" viewBox="0 0 14 11" fill="none" xmlns="http://www.w3.org/2000/svg">
<path d="M6.832 -0.000238419C7.664 -0.000238419 8.39467 0.0157614 9.024 0.047761L9.36 0.0637608C10.4907 0.106428 11.2853 0.186428 11.744 0.303761C12.0533 0.389094 12.3253 0.554428 12.56 0.799761C12.7947 1.04509 12.9547 1.33309 13.04 1.66376C13.2 2.29309 13.3013 3.41843 13.344 5.03976V5.32776V5.61576C13.2907 7.23709 13.1893 8.36243 13.04 8.99176C12.9547 9.32243 12.7947 9.60776 12.56 9.84776C12.3253 10.0878 12.0533 10.2504 11.744 10.3358C11.3813 10.4424 10.5867 10.5278 9.36 10.5918L9.024 10.6078C8.39467 10.6398 7.664 10.6558 6.832 10.6558H6.672H6.512C5.73333 10.6558 4.94933 10.6398 4.16 10.6078C2.88 10.5544 2.02667 10.4638 1.6 10.3358C1.29067 10.2504 1.01867 10.0878 0.784 9.84776C0.549333 9.60776 0.389333 9.32243 0.304 8.99176C0.154667 8.36243 0.0533333 7.23709 0 5.61576V5.43976V5.03976C0.0426667 3.41843 0.144 2.29309 0.304 1.66376C0.389333 1.33309 0.549333 1.04509 0.784 0.799761C1.01867 0.554428 1.29067 0.389094 1.6 0.303761C2.02667 0.186428 2.88 0.101094 4.16 0.047761C4.96 0.0157614 5.744 -0.000238419 6.512 -0.000238419H6.832ZM5.344 2.99176V7.66376L9.344 5.32776L5.344 2.99176Z" fill="white"/>
</svg>
